<?xml version="1.0" standalone="no"?>
<!DOCTYPE svg PUBLIC "-//W3C//DTD SVG 20010904//EN"
 "http://www.w3.org/TR/2001/REC-SVG-20010904/DTD/svg10.dtd">
<svg version="1.0" xmlns="http://www.w3.org/2000/svg"
 width="225.000000pt" height="225.000000pt" viewBox="0 0 225.000000 225.000000"
 preserveAspectRatio="xMidYMid meet">
<metadata>
Created by potrace 1.14, written by Peter Selinger 2001-2017
</metadata>
<g transform="translate(0.000000,225.000000) scale(0.100000,-0.100000)"
fill="#000000" stroke="none">
<path d="M0 1125 l0 -1125 1125 0 1125 0 0 1125 0 1125 -1125 0 -1125 0 0
-1125z m1763 511 c66 -27 109 -108 93 -172 -4 -15 -20 -39 -35 -55 l-28 -28
29 -27 c56 -54 56 -148 1 -206 -47 -51 -77 -58 -243 -58 l-150 0 0 280 0 280
150 0 c105 0 161 -4 183 -14z m-749 -44 c225 -106 356 -423 291 -701 -33 -139
-133 -274 -245 -329 -49 -24 -66 -27 -160 -27 -100 0 -108 2 -170 34 -180 94
-300 312 -300 545 0 176 55 311 166 415 86 81 141 102 259 98 78 -2 99 -6 159
-35z"/>
<path d="M1560 1485 l0 -55 64 0 c73 0 96 14 96 60 0 38 -23 50 -99 50 l-61 0
0 -55z"/>
<path d="M1613 1322 l-53 -3 0 -60 0 -59 65 0 c57 0 69 3 90 25 29 28 31 42
10 72 -17 24 -40 29 -112 25z"/>
<path d="M791 1518 c-29 -60 -44 -150 -36 -212 15 -105 40 -150 150 -267 129
-136 148 -178 143 -311 -2 -48 0 -88 4 -88 17 0 109 102 131 146 61 121 75
272 37 418 -50 195 -190 336 -352 353 l-55 5 -22 -44z"/>
<path d="M653 1485 c-51 -43 -96 -114 -124 -191 -26 -72 -31 -239 -10 -324 50
-200 212 -361 368 -364 57 -1 58 -1 70 34 19 56 16 168 -7 218 -11 24 -60 85
-108 135 -94 97 -119 137 -146 226 -20 67 -21 192 -2 254 8 26 11 47 7 47 -4
0 -26 -16 -48 -35z"/>
</g>
</svg>
