<?xml version="1.0" standalone="no"?>
<!DOCTYPE svg PUBLIC "-//W3C//DTD SVG 20010904//EN"
 "http://www.w3.org/TR/2001/REC-SVG-20010904/DTD/svg10.dtd">
<svg version="1.0" xmlns="http://www.w3.org/2000/svg"
 width="800.000000pt" height="800.000000pt" viewBox="0 0 800.000000 800.000000"
 preserveAspectRatio="xMidYMid meet">
<metadata>
Created by potrace 1.14, written by Peter Selinger 2001-2017
</metadata>
<g transform="translate(0.000000,800.000000) scale(0.100000,-0.100000)"
fill="#000000" stroke="none">
<path d="M3835 6489 c-515 -70 -994 -493 -1249 -1103 -126 -299 -190 -599
-202 -946 -11 -303 17 -562 91 -846 152 -583 527 -1094 890 -1215 100 -33 254
-33 340 0 87 34 186 138 242 251 146 297 134 646 -63 1875 -70 441 -95 656
-101 895 -7 282 5 413 52 559 68 211 200 378 360 457 44 21 82 40 85 42 25 16
-173 43 -303 41 -45 -1 -109 -5 -142 -10z"/>
<path d="M4387 6300 c-140 -24 -253 -117 -330 -271 -84 -168 -91 -208 -91
-549 0 -341 5 -392 124 -1145 111 -705 130 -878 130 -1175 0 -313 -24 -432
-123 -625 -41 -79 -68 -117 -132 -180 -67 -67 -94 -87 -167 -120 -48 -22 -88
-43 -88 -46 0 -25 361 -36 496 -15 365 56 737 314 994 691 224 330 373 765
411 1204 16 180 5 533 -21 696 -60 380 -172 684 -358 975 -206 321 -436 509
-678 556 -82 15 -95 16 -167 4z"/>
<path d="M3528 1994 c-16 -16 79 -160 160 -243 140 -141 317 -231 526 -266
182 -30 1196 -30 1196 0 0 7 -26 53 -58 101 -122 185 -277 303 -499 381 l-78
27 -620 4 c-341 2 -624 0 -627 -4z"/>
</g>
</svg>
